<svg xmlns="http://www.w3.org/2000/svg" xmlns:xlink="http://www.w3.org/1999/xlink" width="19" height="19" viewBox="0 0 21 21"><defs><path id="ceoqa" d="M60.766 777.477l-1.926 1.928.536 2.681c.02.04.033.086.033.134 0 .163-.152.29-.297.292h-.006a.292.292 0 0 1-.141-.037l-2.476-1.377-2.476 1.377a.29.29 0 0 1-.313-.02.292.292 0 0 1-.114-.292l.551-2.758-1.926-1.928a.29.29 0 0 1 .174-.496l2.469-.274 1.381-2.489c.102-.184.406-.184.508 0l1.382 2.489 2.468.274a.291.291 0 0 1 .173.496zm4.143-.388c-.293-.215-.658-.484-.705-.662-.052-.195.134-.624.284-.968.258-.592.523-1.204.228-1.714-.3-.516-.968-.592-1.615-.664-.368-.042-.827-.093-.965-.23-.138-.139-.189-.597-.23-.966-.073-.646-.148-1.316-.665-1.615-.45-.259-1.114-.033-1.713.228-.33.144-.664.285-.968.284-.178-.048-.448-.412-.663-.705-.372-.504-.794-1.077-1.403-1.077-.61 0-1.032.573-1.405 1.078-.215.293-.484.658-.737.713-.223 0-.564-.148-.894-.292-.6-.26-1.265-.489-1.714-.228-.516.3-.592.968-.664 1.615-.042.368-.093.827-.23.965-.138.138-.597.19-.966.23-.646.073-1.316.148-1.614.665-.295.51-.03 1.121.227 1.713.15.344.337.773.284.968-.047.179-.412.448-.705.663-.503.372-1.076.794-1.076 1.404 0 .609.573 1.031 1.078 1.404.293.215.658.484.705.662.052.195-.134.624-.284.968-.257.592-.523 1.204-.228 1.714.3.516.968.592 1.615.664.368.042.827.093.965.23.138.139.19.598.23.966.073.647.148 1.315.664 1.615.448.26 1.114.033 1.714-.228.33-.144.661-.288.968-.284.179.048.448.413.663.705.372.504.794 1.077 1.404 1.077.609 0 1.032-.573 1.404-1.078.215-.293.484-.658.737-.713.223 0 .564.148.894.292.6.26 1.266.489 1.714.228.517-.3.592-.968.664-1.615.042-.369.093-.827.23-.965.138-.138.597-.189.965-.23.646-.073 1.315-.148 1.615-.665.294-.51.029-1.12-.228-1.713-.15-.344-.337-.773-.284-.968.048-.178.413-.448.705-.663.504-.372 1.077-.794 1.077-1.404 0-.609-.573-1.031-1.078-1.404z"/></defs><g><g transform="translate(-46 -768)"><use fill="#fff" fill-opacity="0" stroke="#333" stroke-miterlimit="50" xlink:href="#ceoqa"/></g></g></svg>