<svg xmlns="http://www.w3.org/2000/svg" xmlns:xlink="http://www.w3.org/1999/xlink" width="19" height="19" viewBox="0 0 19 19"><defs><path id="p0oba" d="M1077.106 776.694a.993.993 0 0 0-1.412 0 .993.993 0 0 0 0 1.412 1.002 1.002 0 0 0 1.412 0 .993.993 0 0 0 0-1.412z"/><path id="p0obb" d="M1082.693 780.691a.998.998 0 0 0 0 1.413.994.994 0 0 0 1.413 0 .994.994 0 0 0 0-1.413 1.002 1.002 0 0 0-1.413 0z"/><path id="p0obc" d="M1072.778 772.779c3.71-3.705 9.722-3.705 13.43 0a9.5 9.5 0 0 1 .4 13.004l-.095.079c.36.774.976 1.73 1.955 2.212.324.158.25.64-.106.695-1.07.166-2.608-.02-4.037-1.102l-.02.016a9.497 9.497 0 0 1-11.523-1.478c-3.709-3.705-3.709-9.717-.004-13.426zm3.722 7.22c1.376 0 2.5-1.123 2.5-2.5 0-1.376-1.124-2.5-2.5-2.5a2.506 2.506 0 0 0-2.5 2.5 2.503 2.503 0 0 0 2.5 2.5zm7.356-4.015a.584.584 0 0 0-.082-.846.644.644 0 0 0-.88.079l-6.75 7.799a.584.584 0 0 0 .082.845c.265.213.66.176.88-.078zM1086 781.5c0-1.377-1.124-2.5-2.5-2.5a2.506 2.506 0 0 0-2.5 2.5c0 1.376 1.124 2.5 2.5 2.5 1.381 0 2.5-1.124 2.5-2.5z"/></defs><g><g transform="translate(-1070 -770)"><g><use fill="#3ad17d" xlink:href="#p0oba"/></g><g><use fill="#3ad17d" xlink:href="#p0obb"/></g><g><g><use fill="#3ad17d" xlink:href="#p0obc"/></g></g></g></g></svg>