<svg xmlns="http://www.w3.org/2000/svg" xmlns:xlink="http://www.w3.org/1999/xlink" width="19" height="19" viewBox="0 0 19 19"><defs><path id="be2ca" d="M701.638 783.27c-2.753.414-4.638 1.256-4.638 2.228 0 1.38 3.806 2.5 8.5 2.5s8.5-1.12 8.5-2.5c0-.836-1.393-1.575-3.533-2.03"/><path id="be2cb" d="M710.716 776.22c0 3.966-3.304 4.71-4.858 8.522a.372.372 0 0 1-.689-.002c-1.401-3.437-4.226-4.38-4.766-7.441-.532-3.014 1.556-5.967 4.605-6.255a5.202 5.202 0 0 1 5.708 5.175zm-2.455-.002a2.745 2.745 0 0 0-2.747-2.743 2.745 2.745 0 0 0-2.747 2.743 2.745 2.745 0 0 0 2.747 2.742 2.745 2.745 0 0 0 2.747-2.742z"/></defs><g><g transform="translate(-696 -770)"><g><use fill="#fff" fill-opacity="0" stroke="#333" stroke-linecap="round" stroke-miterlimit="50" xlink:href="#be2ca"/></g><g><use fill="#fff" fill-opacity="0" stroke="#333" stroke-miterlimit="50" xlink:href="#be2cb"/></g></g></g></svg>